<svg width="234" height="234" viewBox="0 0 234 234" fill="none" xmlns="http://www.w3.org/2000/svg">
    <path fill-rule="evenodd" clip-rule="evenodd"
          d="M154 35.924C154 48.5686 147.362 59.6874 137.329 66.0893C139.964 67.0093 142.66 68.1626 145.279 69.6084C157.555 76.3863 166.924 87.3998 171.624 100.578H184.438C186.974 100.578 189.406 101.582 191.199 103.369C192.993 105.156 194 107.58 194 110.107C194 112.635 192.993 115.058 191.199 116.845C189.406 118.632 186.974 119.636 184.438 119.636H174.875V138.695H184.438C186.974 138.695 189.406 139.699 191.199 141.486C192.993 143.273 194 145.697 194 148.224C194 150.751 192.993 153.175 191.199 154.962C189.406 156.749 186.974 157.753 184.438 157.753H174.875V176.811H184.438C186.974 176.811 189.406 177.815 191.199 179.602C192.993 181.389 194 183.813 194 186.34C194 188.868 192.993 191.291 191.199 193.078C189.406 194.865 186.974 195.869 184.438 195.869H171.614C167.657 207.021 160.327 216.676 150.635 223.505C140.943 230.333 129.365 234 117.495 234C105.625 234 94.0473 230.333 84.3553 223.505C74.6633 216.676 67.3339 207.021 63.3763 195.869H50.5625C48.0264 195.869 45.5941 194.865 43.8008 193.078C42.0075 191.291 41 188.868 41 186.34C41 183.813 42.0075 181.389 43.8008 179.602C45.5941 177.815 48.0264 176.811 50.5625 176.811H60.125V157.753H50.5625C48.0264 157.753 45.5941 156.749 43.8008 154.962C42.0075 153.175 41 150.751 41 148.224C41 145.697 42.0075 143.273 43.8008 141.486C45.5941 139.699 48.0264 138.695 50.5625 138.695H60.125V119.636H50.5625C48.0264 119.636 45.5941 118.632 43.8008 116.845C42.0075 115.058 41 112.635 41 110.107C41 107.58 42.0075 105.156 43.8008 103.369C45.5941 101.582 48.0264 100.578 50.5625 100.578H63.3858C68.0806 87.403 77.4422 76.3899 89.7114 69.6084C92.3302 68.161 95.0281 67.0067 97.6656 66.0861C87.6354 59.6838 81 48.5665 81 35.924C81 16.0837 97.3416 0 117.5 0C137.658 0 154 16.0837 154 35.924ZM117.5 61.8691C132.266 61.8691 144 50.1237 144 35.924C144 21.7242 132.266 9.97888 117.5 9.97888C102.734 9.97888 91 21.7242 91 35.924C91 50.1237 102.734 61.8691 117.5 61.8691ZM79.25 119.636V176.811C79.25 186.92 83.2799 196.615 90.4532 203.764C97.6264 210.912 107.355 214.928 117.5 214.928C127.645 214.928 137.374 210.912 144.547 203.764C151.72 196.615 155.75 186.92 155.75 176.811V119.636C155.75 109.527 151.72 99.8322 144.547 92.6839C137.374 85.5357 127.645 81.5199 117.5 81.5199C107.355 81.5199 97.6264 85.5357 90.4532 92.6839C83.2799 99.8322 79.25 109.527 79.25 119.636ZM116 27.9409C116 29.0431 116.895 29.9366 118 29.9366C119.105 29.9366 120 29.0431 120 27.9409V20.9557C120 19.8534 119.105 18.9599 118 18.9599C116.895 18.9599 116 19.8534 116 20.9557V27.9409ZM100 35.924C100 34.8217 100.895 33.9282 102 33.9282H109C110.105 33.9282 111 34.8217 111 35.924C111 37.0262 110.105 37.9198 109 37.9198H102C100.895 37.9198 100 37.0262 100 35.924ZM116 49.9395C116 51.0418 116.895 51.9353 118 51.9353C119.105 51.9353 120 51.0418 120 49.9395V42.9543C120 41.8521 119.105 40.9585 118 40.9585C116.895 40.9585 116 41.8521 116 42.9543V49.9395ZM126 33.9282C124.895 33.9282 124 34.8217 124 35.924C124 37.0262 124.895 37.9198 126 37.9198H133C134.105 37.9198 135 37.0262 135 35.924C135 34.8217 134.105 33.9282 133 33.9282H126ZM94 134.216C94 128.98 98.2443 124.736 103.48 124.736H132.52C137.756 124.736 142 128.98 142 134.216C142 139.452 137.756 143.696 132.52 143.696H103.48C98.2443 143.696 94 139.452 94 134.216ZM94 162.157C94 156.921 98.2443 152.677 103.48 152.677H132.52C137.756 152.677 142 156.921 142 162.157C142 167.393 137.756 171.637 132.52 171.637H103.48C98.2443 171.637 94 167.393 94 162.157Z"
          fill="url(#paint0_linear_12_178)"/>
    <defs>
        <linearGradient id="paint0_linear_12_178" x1="194" y1="-5.9376e-06" x2="41.4527" y2="233.801"
                        gradientUnits="userSpaceOnUse">
            <stop stop-color="#3B82F6"/>
            <stop offset="1" stop-color="#10B981"/>
        </linearGradient>
    </defs>
</svg>
